<svg width="500" height="300" viewBox="0 0 500 300" fill="none" xmlns="http://www.w3.org/2000/svg">
<path fill-rule="evenodd" clip-rule="evenodd" d="M204 98C187.27 98 172.386 105.9 162.874 118.174L184.108 136.378L184.173 122.32H185.367L209.572 98.295C207.741 98.1 205.882 98 204 98ZM152 150C152 138.906 155.474 128.624 161.394 120.181L184.093 139.641L184.049 149.232L156.574 168.296L155.576 168.988C153.268 163.106 152 156.701 152 150ZM169.384 188.805C163.824 183.842 159.338 177.701 156.316 170.776H157.36H199.937L169.384 188.805ZM204 202C191.652 202 180.309 197.696 171.39 190.506L204.326 171.07L236.885 190.283C227.924 197.607 216.475 202 204 202ZM251.684 170.776C248.709 177.594 244.315 183.651 238.874 188.572L208.715 170.776H250.64H251.684ZM256 150C256 156.701 254.732 163.106 252.424 168.988L251.426 168.296L221.487 147.523V139.573L245.648 118.859C252.149 127.54 256 138.32 256 150ZM212.597 98.7073C225.218 100.807 236.301 107.452 244.109 116.903L221.487 136.296V124.8V122.32H218.989H188.9L212.643 98.7534L212.597 98.7073ZM146 150C146 117.967 171.967 92 204 92C236.033 92 262 117.967 262 150C262 182.033 236.033 208 204 208C171.967 208 146 182.033 146 150ZM218.989 138.438V124.8H186.66L186.555 147.494L204 135.39L218.989 145.789V138.438ZM221.487 150.548L247.066 168.296H160.934L184.035 152.268L184.025 154.556L184.013 157.036H186.512H218.989H221.487V154.556V150.548ZM218.989 148.815V154.556H186.523L186.541 150.529L204 138.415L218.989 148.815ZM368 180H388.1V176.1H379.8V148.9L388.5 140.6C393.167 146.533 397.8 152.467 402.4 158.4C407.067 164.267 411.733 170.167 416.4 176.1H410.3V180H429.6V176.1H421.4C416.4 169.7 411.4 163.333 406.4 157C401.4 150.667 396.367 144.3 391.3 137.9L416.5 113.9H425.1V110H405.8V113.9H411.1L381.5 142.3L379.6 144.4C379.667 143.867 379.7 143.367 379.7 142.9C379.767 142.433 379.8 141.933 379.8 141.4V113.9H387.3V110H368V113.9H375.7V176.1H368V180ZM341.9 175.6C339.233 177.133 336.367 178.367 333.3 179.3C330.3 180.167 327.1 180.6 323.7 180.6C318.767 180.6 314.133 179.667 309.8 177.8C305.467 175.933 301.7 173.367 298.5 170.1C295.233 166.9 292.667 163.133 290.8 158.8C288.933 154.467 288 149.833 288 144.9C288 139.967 288.933 135.333 290.8 131C292.667 126.6 295.233 122.767 298.5 119.5C301.7 116.3 305.467 113.767 309.8 111.9C314.133 109.967 318.767 109 323.7 109C327.1 109 330.3 109.433 333.3 110.3C336.367 111.167 339.267 112.4 342 114V125.2H338.1V116.5C335.9 115.367 333.567 114.5 331.1 113.9C328.7 113.233 326.233 112.9 323.7 112.9C319.3 112.9 315.2 113.767 311.4 115.5C307.6 117.167 304.267 119.467 301.4 122.4C298.533 125.267 296.267 128.667 294.6 132.6C292.933 136.467 292.1 140.6 292.1 145C292.1 149.333 292.933 153.433 294.6 157.3C296.267 161.167 298.533 164.5 301.4 167.3C304.2 170.167 307.5 172.467 311.3 174.2C315.1 175.867 319.167 176.7 323.5 176.7C326.433 176.7 329.233 176.333 331.9 175.6C334.633 174.8 337.2 173.7 339.6 172.3L341.9 175.6ZM70 183H90.1V179.1H80.2V150H88.6H90.9C91.6333 149.933 92.4 149.867 93.2 149.8L108.9 183H120.2V179.1H111.4L97.5 149.5C102.367 148.5 106.067 146.4 108.6 143.2C111.2 140 112.5 136.033 112.5 131.3C112.5 128.033 111.767 125.233 110.3 122.9C108.833 120.567 107.033 118.667 104.9 117.2C102.767 115.733 100.433 114.667 97.9 114C95.4333 113.333 93.1667 113 91.1 113H70V116.9H76.1V179.1H70V183ZM80.2 146.1V116.9H90.7C93.2333 116.9 95.5667 117.3 97.7 118.1C99.8333 118.9 101.733 119.933 103.4 121.2C104.933 122.533 106.133 124.067 107 125.8C107.933 127.533 108.4 129.367 108.4 131.3C108.4 132.9 108.133 134.567 107.6 136.3C107.067 138.033 106.133 139.6 104.8 141C103.4 142.467 101.533 143.7 99.2 144.7C96.9333 145.633 94.0667 146.1 90.6 146.1H80.2Z" fill="white"/>
</svg>
