<svg width="24" height="24" viewBox="0 0 24 24" fill="none" xmlns="http://www.w3.org/2000/svg">
<path d="M13.888 9.93498C14.963 10.812 15.5 11.25 15.5 12C15.5 12.75 14.963 13.188 13.888 14.065C13.591 14.307 13.297 14.535 13.026 14.725C12.789 14.892 12.52 15.064 12.242 15.233C11.169 15.885 10.633 16.211 10.152 15.85C9.672 15.49 9.628 14.734 9.54 13.222C9.516 12.795 9.5 12.376 9.5 12C9.5 11.624 9.516 11.205 9.54 10.778C9.628 9.26598 9.672 8.51098 10.152 8.14998C10.633 7.78898 11.17 8.11498 12.242 8.76698C12.52 8.93598 12.789 9.10798 13.026 9.27498C13.296 9.46498 13.591 9.69298 13.888 9.93498Z" stroke="#5A5A5A" stroke-width="1.5"/>
<path d="M7 3.33801C8.51952 2.45891 10.2445 1.99731 12 2.00001C17.523 2.00001 22 6.47701 22 12C22 17.523 17.523 22 12 22C6.477 22 2 17.523 2 12C2 10.179 2.487 8.47001 3.338 7.00001" stroke="#5A5A5A" stroke-width="1.5" stroke-linecap="round"/>
</svg>
