<svg width="16" height="16" viewBox="0 0 16 16" fill="none" xmlns="http://www.w3.org/2000/svg">
<g clip-path="url(#clip0_231_24)">
<path d="M8 16C5.87827 16 3.84344 15.1571 2.34315 13.6569C0.842855 12.1566 0 10.1217 0 8C0 5.87827 0.842855 3.84344 2.34315 2.34315C3.84344 0.842855 5.87827 0 8 0C10.1217 0 12.1566 0.842855 13.6569 2.34315C15.1571 3.84344 16 5.87827 16 8C16 10.1217 15.1571 12.1566 13.6569 13.6569C12.1566 15.1571 10.1217 16 8 16ZM8.847 7.855C9.40125 7.6556 9.86737 7.26705 10.1633 6.75776C10.4592 6.24847 10.566 5.6511 10.4648 5.07084C10.3636 4.49057 10.0609 3.96462 9.61003 3.58558C9.15917 3.20654 8.58902 2.99873 8 2.99873C7.41098 2.99873 6.84084 3.20654 6.38997 3.58558C5.9391 3.96462 5.63641 4.49057 5.53521 5.07084C5.434 5.6511 5.54076 6.24847 5.8367 6.75776C6.13263 7.26705 6.59875 7.6556 7.153 7.855C5.471 8.261 4 9.775 4 11C4 11.395 4.145 11.995 5 11.995H11C11.855 11.995 12 11.395 12 11C12 9.776 10.53 8.26 8.847 7.855Z" fill="#1351F9" fill-opacity="0.4"/>
</g>
<defs>
<clipPath id="clip0_231_24">
<rect width="16" height="16" fill="white"/>
</clipPath>
</defs>
</svg>
