<svg width="500" height="300" viewBox="0 0 500 300" fill="none" xmlns="http://www.w3.org/2000/svg">
<path fill-rule="evenodd" clip-rule="evenodd" d="M204 76C187.27 76 172.386 83.9004 162.874 96.1738L184.108 114.378L184.173 100.32H185.367L209.572 76.295C207.741 76.1 205.882 76 204 76ZM152 128C152 116.906 155.474 106.624 161.394 98.1813L184.093 117.641L184.049 127.232L156.574 146.296L155.576 146.988C153.268 141.106 152 134.701 152 128ZM169.384 166.805C163.824 161.842 159.338 155.701 156.316 148.776H157.36H199.937L169.384 166.805ZM204 180C191.652 180 180.309 175.696 171.39 168.506L204.326 149.07L236.885 168.283C227.924 175.607 216.475 180 204 180ZM251.684 148.776C248.709 155.594 244.315 161.651 238.874 166.572L208.715 148.776H250.64H251.684ZM256 128C256 134.701 254.732 141.106 252.424 146.988L251.426 146.296L221.487 125.523V117.573L245.648 96.8594C252.149 105.54 256 116.32 256 128ZM212.597 76.7073C225.218 78.807 236.301 85.4518 244.109 94.9027L221.487 114.296V102.8V100.32H218.989H188.9L212.643 76.7534L212.597 76.7073ZM146 128C146 95.9675 171.967 70 204 70C236.033 70 262 95.9675 262 128C262 160.033 236.033 186 204 186C171.967 186 146 160.033 146 128ZM218.989 116.438V102.8H186.66L186.555 125.494L204 113.39L218.989 123.789V116.438ZM221.487 128.548L247.066 146.296H160.934L184.035 130.268L184.025 132.556L184.013 135.036H186.512H218.989H221.487V132.556V128.548ZM218.989 126.815V132.556H186.523L186.541 128.529L204 116.415L218.989 126.815ZM368 158H388.1V154.1H379.8V126.9L388.5 118.6C393.167 124.533 397.8 130.467 402.4 136.4C407.067 142.267 411.733 148.167 416.4 154.1H410.3V158H429.6V154.1H421.4C416.4 147.7 411.4 141.333 406.4 135C401.4 128.667 396.367 122.3 391.3 115.9L416.5 91.9H425.1V88H405.8V91.9H411.1L381.5 120.3L379.6 122.4C379.667 121.867 379.7 121.367 379.7 120.9C379.767 120.433 379.8 119.933 379.8 119.4V91.9H387.3V88H368V91.9H375.7V154.1H368V158ZM341.9 153.6C339.233 155.133 336.367 156.367 333.3 157.3C330.3 158.167 327.1 158.6 323.7 158.6C318.767 158.6 314.133 157.667 309.8 155.8C305.467 153.933 301.7 151.367 298.5 148.1C295.233 144.9 292.667 141.133 290.8 136.8C288.933 132.467 288 127.833 288 122.9C288 117.967 288.933 113.333 290.8 109C292.667 104.6 295.233 100.767 298.5 97.5C301.7 94.3 305.467 91.7667 309.8 89.9C314.133 87.9667 318.767 87 323.7 87C327.1 87 330.3 87.4333 333.3 88.3C336.367 89.1667 339.267 90.4 342 92V103.2H338.1V94.5C335.9 93.3667 333.567 92.5 331.1 91.9C328.7 91.2333 326.233 90.9 323.7 90.9C319.3 90.9 315.2 91.7667 311.4 93.5C307.6 95.1667 304.267 97.4667 301.4 100.4C298.533 103.267 296.267 106.667 294.6 110.6C292.933 114.467 292.1 118.6 292.1 123C292.1 127.333 292.933 131.433 294.6 135.3C296.267 139.167 298.533 142.5 301.4 145.3C304.2 148.167 307.5 150.467 311.3 152.2C315.1 153.867 319.167 154.7 323.5 154.7C326.433 154.7 329.233 154.333 331.9 153.6C334.633 152.8 337.2 151.7 339.6 150.3L341.9 153.6ZM70 161H90.1V157.1H80.2V128H88.6H90.9C91.6333 127.933 92.4 127.867 93.2 127.8L108.9 161H120.2V157.1H111.4L97.5 127.5C102.367 126.5 106.067 124.4 108.6 121.2C111.2 118 112.5 114.033 112.5 109.3C112.5 106.033 111.767 103.233 110.3 100.9C108.833 98.5667 107.033 96.6667 104.9 95.2C102.767 93.7333 100.433 92.6667 97.9 92C95.4333 91.3333 93.1667 91 91.1 91H70V94.9H76.1V157.1H70V161ZM80.2 124.1V94.9H90.7C93.2333 94.9 95.5667 95.3 97.7 96.1C99.8333 96.9 101.733 97.9333 103.4 99.2C104.933 100.533 106.133 102.067 107 103.8C107.933 105.533 108.4 107.367 108.4 109.3C108.4 110.9 108.133 112.567 107.6 114.3C107.067 116.033 106.133 117.6 104.8 119C103.4 120.467 101.533 121.7 99.2 122.7C96.9333 123.633 94.0667 124.1 90.6 124.1H80.2ZM319.726 227.8C319.294 228.232 318.782 228.576 318.19 228.832C317.614 229.072 316.998 229.192 316.342 229.192C315.67 229.192 315.046 229.072 314.47 228.832C313.894 228.576 313.39 228.232 312.958 227.8C312.526 227.384 312.182 226.896 311.926 226.336C311.686 225.76 311.566 225.144 311.566 224.488C311.566 223.848 311.686 223.24 311.926 222.664C312.182 222.088 312.526 221.584 312.958 221.152C313.39 220.736 313.894 220.408 314.47 220.168C315.046 219.912 315.67 219.784 316.342 219.784C316.998 219.784 317.614 219.912 318.19 220.168C318.782 220.408 319.302 220.736 319.75 221.152C320.166 221.584 320.494 222.088 320.734 222.664C320.99 223.24 321.118 223.848 321.118 224.488C321.118 225.144 320.99 225.76 320.734 226.336C320.494 226.896 320.158 227.384 319.726 227.8ZM314.038 226.768C314.326 227.072 314.662 227.312 315.046 227.488C315.43 227.648 315.846 227.728 316.294 227.728C316.742 227.728 317.158 227.648 317.542 227.488C317.942 227.312 318.294 227.072 318.598 226.768C318.886 226.48 319.11 226.144 319.27 225.76C319.446 225.376 319.534 224.96 319.534 224.512C319.534 224.064 319.446 223.648 319.27 223.264C319.11 222.864 318.886 222.512 318.598 222.208C318.294 221.92 317.942 221.696 317.542 221.536C317.158 221.36 316.742 221.272 316.294 221.272C315.846 221.272 315.43 221.36 315.046 221.536C314.662 221.696 314.326 221.92 314.038 222.208C313.734 222.512 313.494 222.864 313.318 223.264C313.158 223.648 313.078 224.056 313.078 224.488C313.078 224.952 313.158 225.376 313.318 225.76C313.494 226.144 313.734 226.48 314.038 226.768ZM291.687 229H296.679V227.56H294.951V220H291.687V221.44H293.439V227.56H291.687V229ZM294.927 217.408C295.135 217.2 295.239 216.952 295.239 216.664C295.239 216.36 295.135 216.112 294.927 215.92C294.719 215.712 294.487 215.608 294.231 215.608C293.975 215.608 293.735 215.712 293.511 215.92C293.303 216.112 293.199 216.36 293.199 216.664C293.199 216.952 293.303 217.2 293.511 217.408C293.735 217.6 293.975 217.696 294.231 217.696C294.487 217.696 294.719 217.6 294.927 217.408ZM276.807 229H273.663V228.28V227.896V227.512C273.599 227.672 273.471 227.848 273.279 228.04C273.103 228.232 272.871 228.408 272.583 228.568C272.279 228.76 271.927 228.912 271.527 229.024C271.143 229.136 270.711 229.192 270.231 229.192C269.559 229.192 268.927 229.072 268.335 228.832C267.759 228.576 267.263 228.232 266.847 227.8C266.415 227.384 266.071 226.888 265.815 226.312C265.575 225.736 265.455 225.128 265.455 224.488C265.455 223.848 265.575 223.248 265.815 222.688C266.071 222.112 266.415 221.608 266.847 221.176C267.263 220.744 267.759 220.408 268.335 220.168C268.927 219.912 269.559 219.784 270.231 219.784C270.663 219.784 271.071 219.848 271.455 219.976C271.839 220.088 272.183 220.232 272.487 220.408C272.791 220.6 273.023 220.784 273.183 220.96C273.343 221.12 273.463 221.28 273.543 221.44C273.511 221.152 273.495 220.896 273.495 220.672V219.928V212.44H271.839V211H275.007V227.56H276.807V229ZM270.231 221.272C269.751 221.272 269.311 221.36 268.911 221.536C268.511 221.696 268.167 221.92 267.879 222.208C267.607 222.496 267.391 222.84 267.231 223.24C267.071 223.624 266.991 224.04 266.991 224.488C266.991 224.952 267.079 225.392 267.255 225.808C267.431 226.224 267.671 226.576 267.975 226.864C268.263 227.136 268.599 227.352 268.983 227.512C269.367 227.656 269.783 227.728 270.231 227.728C270.679 227.728 271.087 227.656 271.455 227.512C271.839 227.352 272.183 227.136 272.487 226.864C272.791 226.576 273.031 226.224 273.207 225.808C273.399 225.392 273.495 224.952 273.495 224.488C273.495 223.992 273.399 223.544 273.207 223.144C273.015 222.728 272.759 222.376 272.439 222.088C272.167 221.832 271.839 221.632 271.455 221.488C271.071 221.344 270.663 221.272 270.231 221.272ZM245.999 228.52C246.719 228.056 247.239 227.44 247.559 226.672L247.511 227.752L247.535 229H250.583V227.704H248.999V220H245.807V221.44H247.487V224.632C247.487 225.08 247.391 225.496 247.199 225.88C247.007 226.248 246.751 226.568 246.431 226.84C246.127 227.112 245.767 227.328 245.351 227.488C244.951 227.632 244.527 227.704 244.079 227.704C243.439 227.672 242.959 227.488 242.639 227.152C242.335 226.8 242.167 226.384 242.135 225.904V220H238.943V221.44H240.623V226.504C240.655 227.304 240.935 227.952 241.463 228.448C241.991 228.944 242.711 229.192 243.623 229.192C244.503 229.192 245.295 228.968 245.999 228.52ZM223.386 229H219.978V221.488H217.938V220H219.978V214.144H221.49V220H224.058V221.488H221.49V227.56H223.386V229ZM201.591 228.904C201.991 228.712 202.303 228.472 202.527 228.184C202.751 227.896 202.911 227.592 203.007 227.272C203.103 226.952 203.151 226.672 203.151 226.432C203.151 225.92 203.055 225.504 202.863 225.184C202.671 224.864 202.423 224.6 202.119 224.392C201.831 224.2 201.511 224.04 201.159 223.912C200.807 223.768 200.479 223.632 200.175 223.504C199.871 223.392 199.607 223.256 199.383 223.096C199.175 222.936 199.063 222.72 199.047 222.448C199.031 222.256 199.055 222.088 199.119 221.944C199.183 221.8 199.271 221.672 199.383 221.56C199.511 221.48 199.655 221.416 199.815 221.368C199.991 221.32 200.167 221.296 200.343 221.296C200.551 221.296 200.743 221.32 200.919 221.368C201.095 221.4 201.263 221.456 201.423 221.536V222.688H202.791V220.744C202.631 220.568 202.439 220.424 202.215 220.312C202.007 220.2 201.791 220.104 201.567 220.024C201.327 219.944 201.095 219.888 200.871 219.856C200.663 219.824 200.471 219.808 200.295 219.808C200.007 219.808 199.695 219.864 199.359 219.976C199.023 220.072 198.719 220.224 198.447 220.432C198.175 220.64 197.951 220.912 197.775 221.248C197.599 221.568 197.511 221.96 197.511 222.424C197.511 222.968 197.615 223.4 197.823 223.72C198.031 224.024 198.287 224.264 198.591 224.44C198.911 224.616 199.247 224.76 199.599 224.872C199.967 224.968 200.303 225.08 200.607 225.208C200.911 225.32 201.151 225.472 201.327 225.664C201.519 225.84 201.615 226.104 201.615 226.456C201.615 226.68 201.575 226.872 201.495 227.032C201.415 227.176 201.319 227.296 201.207 227.392C201.047 227.504 200.879 227.584 200.703 227.632C200.527 227.68 200.351 227.704 200.175 227.704C199.855 227.704 199.567 227.688 199.311 227.656C199.071 227.624 198.831 227.536 198.591 227.392V226.312H197.223V228.256C197.575 228.608 198.007 228.856 198.519 229C199.047 229.128 199.583 229.192 200.127 229.192C200.719 229.192 201.207 229.096 201.591 228.904Z" fill="white"/>
</svg>
