<svg width="24" height="24" viewBox="0 0 24 24" fill="none" xmlns="http://www.w3.org/2000/svg">
<path fill-rule="evenodd" clip-rule="evenodd" d="M18.3194 14.4321C19.5664 12.8245 20.1541 10.8022 19.9629 8.77659C19.7717 6.75102 18.8161 4.87435 17.2904 3.52838C15.7646 2.18241 13.7834 1.46825 11.7498 1.53118C9.71624 1.5941 7.783 2.4294 6.34341 3.86713C4.90256 5.30585 4.06454 7.23985 4.0001 9.27499C3.93567 11.3101 4.64968 13.2933 5.99663 14.8203C7.34359 16.3472 9.2221 17.3032 11.2494 17.4932C13.2767 17.6833 15.3001 17.0932 16.9074 15.8431L16.9504 15.8881L21.1924 20.1311C21.2853 20.224 21.3956 20.2977 21.517 20.348C21.6384 20.3983 21.7685 20.4242 21.8999 20.4242C22.0313 20.4242 22.1614 20.3983 22.2828 20.348C22.4042 20.2977 22.5145 20.224 22.6074 20.1311C22.7003 20.0382 22.774 19.9279 22.8243 19.8065C22.8746 19.6851 22.9005 19.555 22.9005 19.4236C22.9005 19.2922 22.8746 19.1621 22.8243 19.0407C22.774 18.9193 22.7003 18.809 22.6074 18.7161L18.3644 14.4741C18.3498 14.4597 18.3348 14.4457 18.3194 14.4321ZM16.2434 5.28213C16.808 5.83761 17.257 6.49938 17.5646 7.22926C17.8722 7.95915 18.0322 8.74271 18.0354 9.53475C18.0386 10.3268 17.885 11.1116 17.5834 11.844C17.2818 12.5764 16.8382 13.2418 16.2781 13.8018C15.718 14.3619 15.0526 14.8055 14.3203 15.1071C13.5879 15.4087 12.8031 15.5624 12.011 15.5591C11.219 15.5559 10.4354 15.3959 9.70554 15.0883C8.97565 14.7808 8.31389 14.3317 7.75841 13.7671C6.64832 12.6388 6.02906 11.1176 6.03551 9.53475C6.04195 7.95193 6.67358 6.43577 7.79282 5.31654C8.91205 4.1973 10.4282 3.56567 12.011 3.55923C13.5938 3.55278 15.1151 4.17205 16.2434 5.28213Z" fill="black"/>
</svg>
